<?xml version="1.0" encoding="iso-8859-1"?>
<svg xmlns="http://www.w3.org/2000/svg" xmlns:xlink="http://www.w3.org/1999/xlink" version="1.1" x="0px" y="0px" viewBox="0 0 60.16 60.16" style="enable-background:new 0 0 60.16 60.16;" xml:space="preserve" width="32px" height="32px">
	<path d="M14.118,20.84c1.151-1.096,3.702-3.202,7.456-4.532c0.521-0.185,0.605-0.599,0.153-0.916 c-1.115-0.782-3.308-2.104-5.981-2.604c-0.543-0.103-1.293,0.192-1.554,0.679c-0.575,1.072-1.328,3.278-0.904,7.098 C13.35,21.113,13.718,21.221,14.118,20.84z" fill="#a5c85a"/>
	<path d="M37.931,16.308c3.756,1.33,6.307,3.436,7.457,4.532c0.4,0.381,0.77,0.273,0.83-0.275 c0.424-3.82-0.33-6.026-0.904-7.098c-0.263-0.487-1.013-0.782-1.556-0.679c-2.671,0.5-4.864,1.822-5.979,2.604 C37.326,15.709,37.41,16.123,37.931,16.308z" fill="#a5c85a"/>
	<path d="M59.485,25.012c-4.279,0.741-7.877,2.262-10.635,3.795c-3.158-6.145-11.394-12.613-19.03-12.613 c-7.458,0-15.489,6.172-18.8,12.186C8.3,26.901,4.802,25.459,0.671,24.744c-0.312-0.055-0.609,0.155-0.663,0.467 c-0.054,0.312,0.155,0.608,0.467,0.662c3.977,0.689,7.374,2.104,10.018,3.548c-0.196,0.425-0.364,0.846-0.507,1.263 c-1.663-0.595-3.868-1.207-6.288-1.414c-0.317-0.026-0.592,0.207-0.62,0.522c-0.025,0.315,0.208,0.59,0.524,0.62 c2.32,0.198,4.464,0.805,6.069,1.381c-0.114,0.504-0.186,0.994-0.208,1.473c0,0-0.062,0.109-0.158,0.305 c-1.368,0.032-3.151,0.295-4.655,1.244c-0.268,0.169-0.347,0.523-0.179,0.791c0.109,0.172,0.296,0.266,0.486,0.266 c0.104,0,0.209-0.027,0.304-0.088c1.102-0.695,2.419-0.959,3.54-1.037c-0.375,1.021-0.737,2.432-0.569,3.801 c0.067,0.547,0.355,0.521,0.749,0.136c0.202-0.198,0.476-0.392,0.842-0.524c0.519-0.188,0.699,0.178,0.455,0.672 c-0.582,1.18-1.27,3.541,0.102,6.803c0.214,0.509,0.434,0.455,0.5-0.094c0.093-0.771,0.298-1.856,0.75-2.783 c0.242-0.496,0.41-0.407,0.395,0.145c-0.009,0.311,0.013,0.666,0.101,1.027c0.13,0.537,0.614,0.522,0.943,0.08 c0.332-0.447,0.791-0.978,1.31-1.33c0.457-0.311,1.273-0.112,1.729,0.199c3.866,2.64,8.907,4.514,13.711,4.514 c4.833,0,9.908-1.896,13.783-4.562c0.455-0.312,1.271-0.505,1.713-0.174c0.478,0.357,0.883,0.877,1.177,1.321 c0.305,0.461,0.761,0.487,0.891-0.048c0.089-0.361,0.109-0.719,0.103-1.029c-0.017-0.552,0.152-0.641,0.396-0.145 c0.451,0.928,0.656,2.016,0.749,2.785c0.066,0.549,0.287,0.601,0.501,0.09c1.372-3.26,0.685-5.621,0.103-6.799 c-0.244-0.496-0.064-0.861,0.453-0.673c0.366,0.134,0.641,0.325,0.842,0.523c0.395,0.387,0.684,0.411,0.756-0.136 c0.164-1.262-0.104-2.562-0.42-3.555c1.212,0.031,2.766,0.258,4.033,1.061c0.095,0.06,0.201,0.09,0.305,0.09 c0.191,0,0.377-0.096,0.484-0.268c0.17-0.268,0.09-0.621-0.178-0.791c-1.662-1.051-3.668-1.26-5.074-1.248 c-0.123-0.283-0.221-0.477-0.254-0.543c-0.016-0.35-0.058-0.707-0.121-1.072c1.637-0.618,3.961-1.32,6.498-1.538 c0.314-0.026,0.549-0.304,0.521-0.62c-0.027-0.314-0.307-0.547-0.62-0.521c-2.61,0.226-4.974,0.92-6.672,1.555 c-0.123-0.404-0.271-0.812-0.441-1.225c2.687-1.507,6.196-3.011,10.337-3.727c0.312-0.054,0.521-0.351,0.467-0.662 C60.096,25.167,59.798,24.957,59.485,25.012z M22.949,28.984c-0.811,0-1.469-0.657-1.469-1.469c0-0.811,0.658-1.469,1.469-1.469 c0.811,0,1.469,0.657,1.469,1.469C24.418,28.327,23.76,28.984,22.949,28.984z M32.161,38.692c-0.736,0.069-1.49,0.106-2.239,0.106 c-0.86,0-1.725-0.049-2.566-0.142c-0.314-0.034-0.541-0.319-0.506-0.634c0.036-0.314,0.319-0.542,0.633-0.506 c0.584,0.064,1.177,0.105,1.775,0.122c-0.001-0.036-0.001-0.089-0.001-0.148c0,0,0-0.221,0-0.491s-0.436-0.742-0.898-1.149 c-0.377-0.331-0.684-0.656-0.791-0.782c-0.222-0.213-0.791-0.854-0.516-1.609c0.341-0.92,1.634-1.057,2.577-1.08 c0.059,0,0.127-0.004,0.197-0.004c1.39,0,2.264,0.328,2.59,0.971c0.167,0.328,0.261,0.863-0.242,1.554 c-0.006,0.01-0.113,0.151-0.113,0.151c-0.209,0.271-0.477,0.57-0.773,0.842c-0.467,0.426-0.932,0.869-0.932,1.128v0.472 c0,0.063,0,0.12,0,0.156c0.569-0.012,1.139-0.044,1.699-0.098c0.313-0.033,0.594,0.201,0.625,0.517 C32.708,38.382,32.479,38.662,32.161,38.692z M35.973,29.007c-0.811,0-1.469-0.657-1.469-1.469s0.658-1.469,1.469-1.469 c0.812,0,1.469,0.657,1.469,1.469C37.443,28.35,36.784,29.007,35.973,29.007z" fill="#a5c85a"/>
	<path d="M31.152,34.384l0.104-0.137c0.046-0.061,0.204-0.293,0.146-0.408 c-0.077-0.146-0.569-0.373-1.615-0.373c-0.087,0-0.146,0.005-0.159,0.005c-0.346,0.008-0.616,0.032-0.828,0.065 c-0.455,0.071-0.757,0.424-0.675,0.549c0.048,0.072,0.11,0.146,0.174,0.207c0.02,0.019,0.039,0.041,0.056,0.061 c0.099,0.123,0.375,0.4,0.681,0.668c0.398,0.347,1.138,0.378,1.506,0.036C30.751,34.862,30.964,34.628,31.152,34.384z" fill="#a5c85a"/>
</svg>
